<svg xmlns="http://www.w3.org/2000/svg" viewBox="0 0 32 32">
  <defs>
    <!-- Gradient for the card background - Shadowverse blue theme -->
    <linearGradient id="cardGradient" x1="0%" y1="0%" x2="100%" y2="100%">
      <stop offset="0%" style="stop-color:#1A3A5C;stop-opacity:1" />
      <stop offset="100%" style="stop-color:#0D1F33;stop-opacity:1" />
    </linearGradient>
    <!-- Gradient for the glow effect - cyan/blue -->
    <linearGradient id="glowGradient" x1="0%" y1="0%" x2="100%" y2="100%">
      <stop offset="0%" style="stop-color:#4FC3F7;stop-opacity:1" />
      <stop offset="100%" style="stop-color:#2196F3;stop-opacity:1" />
    </linearGradient>
    <!-- Gold accent gradient -->
    <linearGradient id="goldGradient" x1="0%" y1="0%" x2="100%" y2="100%">
      <stop offset="0%" style="stop-color:#FFD700;stop-opacity:1" />
      <stop offset="100%" style="stop-color:#FFA500;stop-opacity:1" />
    </linearGradient>
  </defs>

  <!-- Background circle with shadow effect -->
  <circle cx="16" cy="16" r="15" fill="url(#cardGradient)" stroke="#4FC3F7" stroke-width="1"/>

  <!-- Decorative inner ring -->
  <circle cx="16" cy="16" r="12" fill="none" stroke="url(#glowGradient)" stroke-width="0.5" opacity="0.6"/>

  <!-- Stylized "S" for Shadowverse with battle log book motif -->
  <!-- Open book / scroll representing log -->
  <path d="M8 10 L8 22 C10 21 13 21 16 22 C19 21 22 21 24 22 L24 10 C22 11 19 11 16 10 C13 11 10 11 8 10 Z"
        fill="url(#glowGradient)" opacity="0.3"/>

  <!-- Left page -->
  <path d="M9 11 L9 20 C11 19.5 13 19.5 15.5 20.5 L15.5 11.5 C13 12 11 12 9 11 Z"
        fill="#E3F2FD" opacity="0.9"/>

  <!-- Right page -->
  <path d="M16.5 11.5 L16.5 20.5 C19 19.5 21 19.5 23 20 L23 11 C21 12 19 12 16.5 11.5 Z"
        fill="#E3F2FD" opacity="0.9"/>

  <!-- Battle result lines on left page -->
  <line x1="10" y1="13" x2="14.5" y2="13" stroke="#1A3A5C" stroke-width="0.6"/>
  <line x1="10" y1="15" x2="14.5" y2="15" stroke="#1A3A5C" stroke-width="0.6"/>
  <line x1="10" y1="17" x2="14.5" y2="17" stroke="#1A3A5C" stroke-width="0.6"/>

  <!-- Battle result lines on right page -->
  <line x1="17.5" y1="13" x2="22" y2="13" stroke="#1A3A5C" stroke-width="0.6"/>
  <line x1="17.5" y1="15" x2="22" y2="15" stroke="#1A3A5C" stroke-width="0.6"/>
  <line x1="17.5" y1="17" x2="22" y2="17" stroke="#1A3A5C" stroke-width="0.6"/>

  <!-- Win mark on left (checkmark in gold) -->
  <path d="M10.5 14 L11.5 15 L13.5 13" fill="none" stroke="url(#goldGradient)" stroke-width="0.8" stroke-linecap="round" stroke-linejoin="round"/>

  <!-- Win mark on right (checkmark in gold) -->
  <path d="M18 16 L19 17 L21 15" fill="none" stroke="url(#goldGradient)" stroke-width="0.8" stroke-linecap="round" stroke-linejoin="round"/>

  <!-- Small crossed swords symbol at top center (representing battle) -->
  <g transform="translate(16, 7)">
    <!-- Sword 1 -->
    <line x1="-3" y1="3" x2="3" y2="-3" stroke="url(#goldGradient)" stroke-width="1" stroke-linecap="round"/>
    <line x1="-1.5" y1="-1.5" x2="-2.5" y2="0.5" stroke="url(#goldGradient)" stroke-width="0.6" stroke-linecap="round"/>
    <!-- Sword 2 -->
    <line x1="3" y1="3" x2="-3" y2="-3" stroke="url(#goldGradient)" stroke-width="1" stroke-linecap="round"/>
    <line x1="1.5" y1="-1.5" x2="2.5" y2="0.5" stroke="url(#goldGradient)" stroke-width="0.6" stroke-linecap="round"/>
  </g>

  <!-- Small decorative dots -->
  <circle cx="16" cy="24" r="0.8" fill="url(#goldGradient)"/>
  <circle cx="13" cy="24" r="0.5" fill="url(#glowGradient)" opacity="0.7"/>
  <circle cx="19" cy="24" r="0.5" fill="url(#glowGradient)" opacity="0.7"/>
</svg>
